<svg width="100" height="100" viewBox="0 0 429 357" fill="none" xmlns="http://www.w3.org/2000/svg">
<mask id="path-1-inside-1_1_3" fill="white">
<path fill-rule="evenodd" clip-rule="evenodd" d="M286.532 264.641L315.435 325.619H330.864H346.293L302.049 232.384L286.532 264.641ZM286.552 199.729L207.432 33L64 325.619H95.0032L207.432 97.7533L271.046 231.966L286.552 199.729Z"/>
</mask>
<path fill-rule="evenodd" clip-rule="evenodd" d="M286.532 264.641L315.435 325.619H330.864H346.293L302.049 232.384L286.532 264.641ZM286.552 199.729L207.432 33L64 325.619H95.0032L207.432 97.7533L271.046 231.966L286.552 199.729Z" fill="black"/>
<path d="M315.435 325.619L314.531 326.048L314.802 326.619H315.435V325.619ZM286.532 264.641L285.631 264.207L285.424 264.637L285.629 265.069L286.532 264.641ZM346.293 325.619V326.619H347.874L347.196 325.191L346.293 325.619ZM302.049 232.384L302.952 231.956L302.055 230.065L301.147 231.951L302.049 232.384ZM207.432 33L208.335 32.5713L207.447 30.6982L206.534 32.5599L207.432 33ZM286.552 199.729L287.454 200.163L287.661 199.732L287.456 199.301L286.552 199.729ZM64 325.619L63.1021 325.179L62.3962 326.619H64V325.619ZM95.0032 325.619V326.619H95.6249L95.9 326.062L95.0032 325.619ZM207.432 97.7533L208.336 97.325L207.45 95.4566L206.535 97.3108L207.432 97.7533ZM271.046 231.966L270.142 232.395L271.039 234.287L271.947 232.4L271.046 231.966ZM316.338 325.191L287.436 264.212L285.629 265.069L314.531 326.048L316.338 325.191ZM330.864 324.619H315.435V326.619H330.864V324.619ZM346.293 324.619H330.864V326.619H346.293V324.619ZM301.145 232.813L345.389 326.048L347.196 325.191L302.952 231.956L301.145 232.813ZM301.147 231.951L285.631 264.207L287.433 265.074L302.95 232.818L301.147 231.951ZM206.529 33.4287L285.649 200.158L287.456 199.301L208.335 32.5713L206.529 33.4287ZM64.8979 326.06L208.33 33.4401L206.534 32.5599L63.1021 325.179L64.8979 326.06ZM95.0032 324.619H64V326.619H95.0032V324.619ZM206.535 97.3108L94.1065 325.177L95.9 326.062L208.329 98.1958L206.535 97.3108ZM271.949 231.538L208.336 97.325L206.528 98.1816L270.142 232.395L271.949 231.538ZM271.947 232.4L287.454 200.163L285.651 199.296L270.144 231.533L271.947 232.4Z" fill="black" mask="url(#path-1-inside-1_1_3)"/>
<path fill-rule="evenodd" clip-rule="evenodd" d="M245.124 325.619L240.718 325.619H232.07L179.359 221.112L127.638 325.619H108.057L179.359 180.146L240.996 304.178L347.437 82.9013L365 91.7728L252.511 325.623L245.124 325.619Z" fill="#0855AC"/>
</svg>
